<?xml version="1.0" encoding="UTF-8"?>
<svg width="176px" height="177px" viewBox="0 0 176 177" version="1.1" xmlns="http://www.w3.org/2000/svg" xmlns:xlink="http://www.w3.org/1999/xlink">
    <!-- Generator: Sketch 64 (93537) - https://sketch.com -->
    <title>Group</title>
    <desc>Created with Sketch.</desc>
    <g id="Page-1" stroke="none" stroke-width="1" fill="none" fill-rule="evenodd">
        <g id="Group" fill-rule="nonzero">
            <g id="jwt-icon-color" transform="translate(37.000000, 0.000000)">
                <polygon id="Path" fill="#FFFFFF" points="57.8 27.2 57.7 0.3 42.7 0.3 42.8 27.2 50.3 37.5"></polygon>
                <polygon id="Path" fill="#FFFFFF" points="42.8 73.3 42.8 100.3 57.8 100.3 57.8 73.3 50.3 63"></polygon>
                <polygon id="Path" fill="#00F2E6" points="57.8 73.3 73.6 95.1 85.7 86.3 69.9 64.5 57.8 60.6"></polygon>
                <polygon id="Path" fill="#00F2E6" points="42.8 27.2 26.9 5.4 14.8 14.2 30.6 36 42.8 39.9"></polygon>
                <polygon id="Path" fill="#00B9F1" points="30.6 36 5 27.7 0.4 41.9 26 50.3 38.1 46.3"></polygon>
                <polygon id="Path" fill="#00B9F1" points="62.4 54.2 69.9 64.5 95.5 72.8 100.1 58.6 74.5 50.3"></polygon>
                <polygon id="Path" fill="#D63AFF" points="74.5 50.3 100.1 41.9 95.5 27.7 69.9 36 62.4 46.3"></polygon>
                <polygon id="Path" fill="#D63AFF" points="26 50.3 0.4 58.6 5 72.8 30.6 64.5 38.1 54.2"></polygon>
                <polygon id="Path" fill="#FB015B" points="30.6 64.5 14.8 86.3 26.9 95.1 42.8 73.3 42.8 60.6"></polygon>
                <polygon id="Path" fill="#FB015B" points="69.9 36 85.7 14.2 73.6 5.4 57.8 27.2 57.8 39.9"></polygon>
            </g>
            <g id="logo-2" transform="translate(0.000000, 122.000000)" fill="#000000">
                <path d="M15.6345178,0 L15.6345178,39.2857143 C15.6345178,47.9285714 8.59898477,55 0,55 L0,47.1428571 C4.35532995,47.1428571 7.81725888,43.6632653 7.81725888,39.2857143 L7.81725888,0 L15.6345178,0 L15.6345178,0 Z M158.35533,7.85714286 L176,7.85714286 L176,0 L133.005076,0 L133.005076,7.85714286 L150.538071,7.85714286 L150.538071,55 L158.35533,55 L158.35533,7.85714286 L158.35533,7.85714286 Z M109.441624,0 L109.441624,39.2857143 C109.441624,43.6632653 105.979695,47.1428571 101.624365,47.1428571 C97.2690355,47.1428571 93.8071066,43.6632653 93.8071066,39.2857143 L93.8071066,15.7142857 C93.8071066,7.07142857 86.7715736,0 78.1725888,0 C69.5736041,0 62.5380711,7.07142857 62.5380711,15.7142857 L62.5380711,39.2857143 C62.5380711,43.6632653 59.0761421,47.1428571 54.7208122,47.1428571 C50.3654822,47.1428571 46.9035533,43.6632653 46.9035533,39.2857143 L46.9035533,0 L39.0862944,0 L39.0862944,39.2857143 C39.0862944,47.9285714 46.1218274,55 54.7208122,55 C63.319797,55 70.3553299,47.9285714 70.3553299,39.2857143 L70.3553299,15.7142857 C70.3553299,11.3367347 73.8172589,7.85714286 78.1725888,7.85714286 C82.5279188,7.85714286 85.9898477,11.3367347 85.9898477,15.7142857 L85.9898477,15.7142857 L85.9898477,39.2857143 C85.9898477,47.9285714 93.0253807,55 101.624365,55 C110.22335,55 117.258883,47.9285714 117.258883,39.2857143 L117.258883,0 L109.441624,0 L109.441624,0 Z" id="Shape"></path>
            </g>
        </g>
    </g>
</svg>